<svg xmlns="http://www.w3.org/2000/svg" xmlns:xlink="http://www.w3.org/1999/xlink" width="500" zoomAndPan="magnify" viewBox="0 0 375 374.999991" height="500" preserveAspectRatio="xMidYMid meet" version="1.0"><defs><clipPath id="1f43b89a1a"><path d="M 39.886719 0 L 335.25 0 L 335.25 375 L 39.886719 375 Z M 39.886719 0 " clip-rule="nonzero"/></clipPath></defs><path fill="#ff3131" d="M 233.796875 158.910156 C 225.441406 158.910156 218.746094 165.609375 218.746094 173.707031 C 218.746094 181.800781 225.441406 188.503906 233.796875 188.503906 C 241.980469 188.503906 248.59375 181.808594 248.59375 173.707031 C 248.59375 165.613281 241.890625 158.910156 233.796875 158.910156 Z M 141.457031 158.910156 C 133.273438 158.910156 126.660156 165.609375 126.660156 173.707031 C 126.660156 181.800781 133.359375 188.503906 141.457031 188.503906 C 149.8125 188.503906 156.511719 181.808594 156.511719 173.707031 C 156.515625 165.613281 149.902344 158.910156 141.457031 158.910156 Z M 187.582031 158.910156 C 179.398438 158.910156 172.785156 165.609375 172.785156 173.707031 C 172.785156 181.800781 179.484375 188.503906 187.582031 188.503906 C 195.765625 188.503906 202.378906 181.808594 202.378906 173.707031 C 202.378906 165.613281 195.855469 158.910156 187.582031 158.910156 Z M 187.582031 158.910156 " fill-opacity="1" fill-rule="evenodd"/><g clip-path="url(#1f43b89a1a)"><path fill="#ff3131" d="M 144.945312 244.28125 L 102.300781 219.660156 L 102.300781 121.238281 L 144.945312 96.609375 L 187.589844 71.976562 L 230.234375 96.609375 L 272.878906 121.238281 L 272.878906 219.660156 L 230.234375 244.289062 L 187.589844 268.921875 L 149.121094 291.113281 L 149.121094 246.726562 Z M 187.582031 340.710938 L 247.027344 375 L 247.027344 306.164062 L 261.300781 297.984375 L 335.101562 255.335938 L 335.101562 85.109375 L 261.300781 42.636719 L 187.5 0 L 113.699219 42.644531 L 39.898438 85.109375 L 39.898438 255.328125 L 113.699219 297.976562 Z M 187.582031 340.710938 " fill-opacity="1" fill-rule="evenodd"/></g></svg>